
<svg width="120px" height="120px" viewBox="-201 -262 120 120" version="1.1" xmlns="http://www.w3.org/2000/svg" xmlns:xlink="http://www.w3.org/1999/xlink">
    <!-- Generator: Sketch 41.2 (35397) - http://www.bohemiancoding.com/sketch -->
    <desc>Created with Sketch.</desc>
    <defs></defs>
    <g id="Group" stroke="none" stroke-width="1" fill="none" fill-rule="evenodd" transform="translate(-141.000000, -202.000000) scale(1, -1) translate(141.000000, 202.000000) translate(-201.000000, -262.000000)">
        <path d="M53.257882,119.611964 C39.3856103,118.25384 27.938561,112.724333 17.4616006,102.344382 C5.62651576,90.6063056 0.0970088925,77.0250606 0,59.9514956 C0,41.519806 7.46968472,25.3193209 21.5359741,13.5812449 C41.0347615,-2.71624899 70.8164915,-4.55941795 92.2554568,9.31285368 C135.036378,36.960388 126.693614,100.792239 78.1891673,117.38076 C71.8835893,119.514956 61.4066289,120.485044 53.257882,119.611964 Z M72.0776071,117.768795 C74.890865,117.186742 80.9054163,114.955538 85.4648343,112.821342 C91.9644301,109.717057 95.2627324,107.291835 101.083266,101.471302 C111.948262,90.5092967 117.089733,80.1293452 118.25384,66.4510914 C119.902991,47.1463217 115.052546,32.9830234 102.247373,19.4987874 C83.039612,-0.970088925 51.8997575,-4.75343573 28.1325788,10.4769604 C19.7898141,15.8124495 11.0590137,25.8043654 6.79062247,34.9232013 C2.13419563,44.8181083 1.16410671,49.2805174 1.06709782,60.1455133 C1.06709782,70.4284559 2.6192401,76.9280517 7.46968472,86.8229588 C11.9320938,95.8447858 22.9911075,107.194826 31.8189167,111.851253 C43.4599838,117.962813 59.4664511,120.388036 72.0776071,117.768795 Z" id="Shape" fill="#BAB7B7"></path>
        <path d="M35.1172191,80.1293452 C33.5650768,77.2190784 33.8561035,39.676637 35.4082458,38.4155214 C36.2813258,37.6394503 44.7210994,37.4454325 61.30962,37.5424414 L85.9498787,37.8334681 L86.2409054,58.5933711 C86.4349232,73.047696 86.1438965,79.7413096 85.3678254,80.6143897 C84.4947454,81.6814875 79.4502829,81.9725141 60.1455133,81.9725141 C37.5424414,81.9725141 35.9902991,81.8755053 35.1172191,80.1293452 Z M85.0767987,78.7712207 C85.2708165,78.0921584 85.3678254,71.1075182 85.2708165,63.3468068 L84.9797898,49.0864996 L78.3831851,54.0339531 L71.7865804,58.9814066 L69.0703314,56.3621665 C67.6151981,55.004042 66.1600647,53.8399353 65.869038,53.8399353 C65.4810024,53.8399353 62.279709,56.4591754 58.5933711,59.6604689 C55.004042,62.8617623 51.6087308,65.4810024 51.1236863,65.4810024 C50.6386419,65.4810024 47.825384,63.6378335 44.8181083,61.4066289 C41.9078416,59.0784155 38.7065481,56.6531932 37.7364592,55.974131 C36.087308,54.8100243 35.9902991,55.3920776 35.9902991,67.3241714 L35.9902991,80.0323363 L60.2425222,80.0323363 C79.2562652,80.0323363 84.6887631,79.7413096 85.0767987,78.7712207 Z M57.6232821,59.0784155 C61.2126112,55.974131 64.1228779,53.257882 64.1228779,52.8698464 C64.1228779,52.3848019 60.6305578,48.9894907 56.4591754,45.2061439 L48.698464,38.2215036 L42.5869038,38.5125303 L36.4753436,38.803557 L36.1843169,46.0792239 L35.9902991,53.3548909 L42.9749394,58.8843977 C46.8552951,61.8916734 50.2506063,64.4139046 50.541633,64.4139046 C50.8326597,64.5109135 54.0339531,62.0856912 57.6232821,59.0784155 Z M85.4648343,44.5270816 C85.4648343,38.1244947 85.9498787,38.3185125 67.9062247,38.3185125 C58.8843977,38.3185125 51.5117219,38.5125303 51.5117219,38.803557 C51.5117219,39.0945837 53.3548909,40.9377526 55.5860954,42.9749394 C57.8172999,44.9151172 62.4737268,49.0864996 65.7720291,52.1907842 L71.8835893,57.720291 L78.6742118,52.6758286 C84.5917542,48.2134196 85.4648343,47.1463217 85.4648343,44.5270816 Z" id="Shape" fill="#BAB7B7"></path>
        <path d="M72.8536783,74.4058205 C68.4882781,70.9135004 72.7566694,64.8019402 77.7041229,67.4211803 C80.1293452,68.6822959 80.2263541,72.3686338 77.8981407,74.5028294 C75.6669361,76.5400162 75.4729184,76.5400162 72.8536783,74.4058205 Z M78.6742118,71.3985449 C78.6742118,68.6822959 75.9579628,66.8391269 74.017785,68.1002425 C71.6895715,69.5553759 71.3985449,72.3686338 73.3387227,73.8237672 C75.4729184,75.4729184 78.6742118,73.9207761 78.6742118,71.3985449 Z" id="Shape" fill="#BAB7B7"></path>
    </g>
</svg>